<svg id="Capa_1" enable-background="new 0 0 512 512" height="512" viewBox="0 0 512 512" width="512" xmlns="http://www.w3.org/2000/svg"><g><path d="m512 272v-217c0-16.569-13.431-30-30-30s-30 13.431-30 30v154.77l-256 212.23 60 70h140.025z" fill="#ffbea4"/><path d="m346 372v-39.782l97.452-97.452c11.716-11.716 11.716-30.711 0-42.426-11.716-11.716-30.71-11.716-42.426 0l-180.006 180.005 34.98 89.655c50.127 0 90-40.5 90-90z" fill="#ffd4c4"/><path d="m0 272v-217c0-16.569 13.431-30 30-30s30 13.431 30 30v154.77l136 122.448 60 129.781v30.001h-140.025z" fill="#ffd4c4"/><path d="m166 372v-39.782l-97.452-97.452c-11.716-11.716-11.716-30.711 0-42.426s30.71-11.716 42.426 0l145.028 145.028-.002 124.632c-50.127 0-90-40.5-90-90z" fill="#ffebe3"/><path d="m256 422h209.125l46.875 90h-256l-60-45z" fill="#77fef4"/><path d="m256 512h-256l46.875-90h209.125z" fill="#d4fffb"/><path d="m308.5 67.5v-67.5h-52.5l-60 120 60 120h52.5v-67.5h67.5v-105z" fill="#38afb0"/><path d="m203.5 0v67.5h-67.5v105h67.5v67.5h52.5v-240z" fill="#46c7c2"/></g></svg>