<svg id="Capa_1" enable-background="new 0 0 512.394 512.394" height="512" viewBox="0 0 512.394 512.394" width="512" xmlns="http://www.w3.org/2000/svg"><g><path d="m339.022 51.913h30v141.148h-30z" fill="#00c76e" transform="matrix(.98 -.2 .2 .98 -17.325 73.13)"/><path d="m359.681 343.746c-2.205-15.471-6.065-30.689-11.589-45.521l-49.174-132.022-63.474.226-21.333 78.906 21.333 128z" fill="#cfcfcf"/><path d="m359.681 343.746-49.049-27.304c-23.506-13.297-51.386-14.042-75.188-2.564l-21.333 91.456 21.333 106.763 85.085-.303 20.715-44.297c12.386-26.487 19.266-54.732 20.447-83.948.542-13.401-.142-26.693-2.01-39.803z" fill="#4bbaed"/><path d="m123.099 299.026c-.148.405-.282.813-.427 1.219 0 0 109.275 74.775 112.772 73.089v-206.906l-64.111.228z" fill="#e5e5e5"/><path d="m225.244 319.722c-14.414 9.684-32.552 11.436-48.547 4.696l-54.025-24.174c-9.699 27.105-13.934 55.425-12.564 84.201 1.39 29.207 8.47 57.401 21.045 83.8l21.03 44.148 83.261-.297v-198.218c-3.497 1.686-6.907 3.632-10.2 5.844z" fill="#96d7f5"/><g><path d="m303.428 179.185-.062-76.755-67.882-.045-10.707 41.523 10.707 35.233z" fill="#00c76e"/><path d="m166.761 179.096 68.723.045v-76.756l-68.784-.045z" fill="#00dd7b"/></g><path d="m405.444 0h-49.501l-35.48 59.135 84.981-.299z" fill="#00c76e"/><path d="m356.494 58.722-.325-58.722h-120.685l-21.374 65.912 21.374 66.516 67.793-.213z" fill="#cfcfcf"/><path d="m223.865.135c-64.697.231-117.144 53.054-116.914 117.75l.054 15 128.48-.457v-132.428z" fill="#e5e5e5"/></g></svg>